<?xml version="1.0" standalone="no"?>
<svg viewBox="0 0 200 200" xmlns="http://www.w3.org/2000/svg">
  <path fill="#D6EAF8" d="M25.3,-41.2C38.2,-36.3,57.9,-40.6,67.6,-35.2C77.3,-29.9,76.9,-14.9,70.4,-3.8C63.8,7.4,51,14.7,41.1,19.7C31.2,24.6,24.2,27.1,17.8,25C11.4,22.9,5.7,16.1,0.7,14.9C-4.3,13.7,-8.7,18.1,-21,23.6C-33.3,29.2,-53.6,35.9,-62.8,32.2C-71.9,28.5,-69.9,14.2,-70.4,-0.3C-70.9,-14.8,-73.9,-29.6,-69.2,-41C-64.5,-52.4,-51.9,-60.3,-39.1,-65.3C-26.3,-70.3,-13.1,-72.4,-3.5,-66.3C6.2,-60.3,12.3,-46.2,25.3,-41.2Z" transform="translate(100 100)" />
</svg>
